<svg width="14" height="14" viewBox="0 0 14 14" fill="none" xmlns="http://www.w3.org/2000/svg">
<g clip-path="url(#clip0_18_5692)">
<path d="M6.72291 1.33877C6.74848 1.28712 6.78797 1.24365 6.83693 1.21325C6.88589 1.18285 6.94237 1.16675 7 1.16675C7.05763 1.16675 7.11411 1.18285 7.16307 1.21325C7.21203 1.24365 7.25152 1.28712 7.27708 1.33877L8.62458 4.06819C8.71335 4.24783 8.84439 4.40326 9.00645 4.52112C9.1685 4.63898 9.35674 4.71575 9.555 4.74485L12.5685 5.18585C12.6256 5.19413 12.6792 5.21821 12.7234 5.25539C12.7675 5.29256 12.8003 5.34134 12.8182 5.39621C12.836 5.45107 12.8382 5.50984 12.8243 5.56586C12.8105 5.62187 12.7813 5.67291 12.74 5.71319L10.5607 7.83535C10.4169 7.97541 10.3094 8.1483 10.2473 8.33914C10.1852 8.52997 10.1704 8.73304 10.2042 8.93085L10.7187 11.9292C10.7288 11.9863 10.7227 12.045 10.701 12.0988C10.6792 12.1525 10.6429 12.199 10.596 12.2331C10.5491 12.2672 10.4936 12.2874 10.4358 12.2914C10.3779 12.2954 10.3202 12.2831 10.269 12.2559L7.57516 10.8395C7.39767 10.7463 7.20019 10.6976 6.99971 10.6976C6.79923 10.6976 6.60175 10.7463 6.42425 10.8395L3.731 12.2559C3.67986 12.2829 3.62215 12.2951 3.56443 12.291C3.50671 12.2869 3.4513 12.2667 3.4045 12.2326C3.35771 12.1986 3.3214 12.1521 3.29971 12.0985C3.27803 12.0448 3.27183 11.9862 3.28183 11.9292L3.79575 8.93144C3.8297 8.73353 3.81499 8.53033 3.7529 8.33938C3.6908 8.14842 3.58319 7.97544 3.43933 7.83535L1.26 5.71377C1.21834 5.67354 1.18883 5.62242 1.17481 5.56623C1.16079 5.51004 1.16284 5.45105 1.18071 5.39596C1.19859 5.34088 1.23157 5.29193 1.27591 5.25468C1.32025 5.21743 1.37416 5.19338 1.4315 5.18527L4.44441 4.74485C4.6429 4.71598 4.83139 4.6393 4.99367 4.52143C5.15595 4.40355 5.28716 4.24801 5.376 4.06819L6.72291 1.33877Z" stroke="#64748B" stroke-opacity="0.5" stroke-width="1.16667" stroke-linecap="round" stroke-linejoin="round"/>
</g>
<defs>
<clipPath id="clip0_18_5692">
<rect width="14" height="14" fill="white"/>
</clipPath>
</defs>
</svg>
